0
SECTION
2
HEADER
9
$INSUNITS
70
4
9
$ACADVER
1
AC1014
9
$HANDSEED
5
FFFF
0
ENDSEC
0
SECTION
2
TABLES
0
TABLE
2
VPORT
5
8
100
AcDbSymbolTable
0
ENDTAB
0
TABLE
2
LTYPE
5
5
100
AcDbSymbolTable
0
LTYPE
5
14
100
AcDbSymbolTableRecord
100
AcDbLinetypeTableRecord
2
BYBLOCK
70
0
0
LTYPE
5
15
100
AcDbSymbolTableRecord
100
AcDbLinetypeTableRecord
2
BYLAYER
70
0
0
ENDTAB
0
TABLE
2
LAYER
5
2
100
AcDbSymbolTable
70
2
0
LAYER
5
50
100
AcDbSymbolTableRecord
100
AcDbLayerTableRecord
2
0
70
0
6
CONTINUOUS
0
ENDTAB
0
TABLE
2
STYLE
5
3
100
AcDbSymbolTable
70
1
0
STYLE
5
11
100
AcDbSymbolTableRecord
100
AcDbTextStyleTableRecord
2
STANDARD
70
0
0
ENDTAB
0
TABLE
2
VIEW
5
6
100
AcDbSymbolTable
70
0
0
ENDTAB
0
TABLE
2
UCS
5
7
100
AcDbSymbolTable
70
0
0
ENDTAB
0
TABLE
2
APPID
5
9
100
AcDbSymbolTable
70
2
0
APPID
5
12
100
AcDbSymbolTableRecord
100
AcDbRegAppTableRecord
2
ACAD
70
0
0
ENDTAB
0
TABLE
2
DIMSTYLE
5
A
100
AcDbSymbolTable
70
1
0
ENDTAB
0
TABLE
2
BLOCK_RECORD
5
1
100
AcDbSymbolTable
70
1
0
BLOCK_RECORD
5
1F
100
AcDbSymbolTableRecord
100
AcDbBlockTableRecord
2
*MODEL_SPACE
0
BLOCK_RECORD
5
1B
100
AcDbSymbolTableRecord
100
AcDbBlockTableRecord
2
*PAPER_SPACE
0
ENDTAB
0
ENDSEC
0
SECTION
2
BLOCKS
0
BLOCK
5
20
100
AcDbEntity
100
AcDbBlockBegin
2
*MODEL_SPACE
0
ENDBLK
5
21
100
AcDbEntity
100
AcDbBlockEnd
0
BLOCK
5
1C
100
AcDbEntity
100
AcDbBlockBegin
2
*PAPER_SPACE
0
ENDBLK
5
1D
100
AcDbEntity
100
AcDbBlockEnd
0
ENDSEC
0
SECTION
2
ENTITIES
0
CIRCLE
5
100
100
AcDbEntity
8
0
100
AcDbCircle
10
-4.3656249999999828
20
-15.875000000000021
30
0
40
2.75
210
0
220
-0
230
1
0
CIRCLE
5
101
100
AcDbEntity
8
0
100
AcDbCircle
10
-32.543750000000003
20
-12.700000000000021
30
0
40
2.7499999999999991
210
0
220
-0
230
1
0
CIRCLE
5
102
100
AcDbEntity
8
0
100
AcDbCircle
10
-11.906250000000023
20
28.574999999999974
30
0
40
2.7500000000000013
210
0
220
-0
230
1
0
LWPOLYLINE
5
103
100
AcDbEntity
8
0
100
AcDbPolyline
90
4
70
1
43
0.0
10
-25.668749999999967
20
-15.406250000000004
10
-25.668749999999978
20
-8.4062500000000195
10
-9.6687499999999993
20
-8.4062500000000142
10
-9.6687499999999975
20
-15.406250000000004
0
LWPOLYLINE
5
104
100
AcDbEntity
8
0
100
AcDbPolyline
90
4
70
1
43
0.0
10
-9.6687500000000011
20
15.40624999999995
10
-9.6687499999999993
20
8.4062499999999662
10
-25.668749999999978
20
8.4062499999999574
10
-25.668749999999978
20
15.40624999999995
0
LWPOLYLINE
5
105
100
AcDbEntity
8
0
100
AcDbPolyline
90
30
70
1
43
0.0
10
-51.125000000000007
20
26.049999999999986
10
-51.125000000000007
20
27.456249999999976
10
-54.243750000000013
20
27.456249999999986
10
-54.243750000000013
20
34.456249999999983
10
-51.125000000000007
20
34.456249999999983
10
-51.125000000000007
20
35.575000000000003
10
-44.125
20
35.575000000000003
10
-44.125
20
34.456249999999983
10
-42.718749999999979
20
34.456249999999983
10
-42.718749999999979
20
35.574999999999989
10
-16.812499999999986
20
35.574999999999974
10
-16.812499999999986
20
21.574999999999974
10
-20.312500000000036
20
21.574999999999974
10
-20.312500000000036
20
19.574999999999999
10
-27.312500000000028
20
19.574999999999999
10
-27.312500000000028
20
21.574999999999974
10
-35.862499999999983
20
21.574999999999989
10
-35.862500000000004
20
10.643749999999969
10
-33.862499999999983
20
10.643749999999969
10
-33.862499999999983
20
3.6437499999999723
10
-35.862500000000004
20
3.6437499999999723
10
-35.862500000000004
20
2.5249999999999795
10
-49.862500000000018
20
2.5249999999999795
10
-49.862500000000018
20
3.643749999999979
10
-54.243750000000013
20
3.6437499999999812
10
-54.243750000000013
20
10.643749999999983
10
-49.862500000000018
20
10.643749999999979
10
-49.862500000000018
20
12.049999999999983
10
-52.243750000000006
20
12.049999999999983
10
-52.243750000000006
20
26.049999999999986
0
LWPOLYLINE
5
106
100
AcDbEntity
8
0
100
AcDbPolyline
90
12
70
1
43
0.0
10
-21.574999999999985
20
-35.575000000000017
10
-54.625
20
-35.575000000000017
10
-54.625
20
-21.575000000000017
10
-53.506249999999994
20
-21.575000000000017
10
-53.506249999999994
20
-19.575000000000028
10
-46.506249999999994
20
-19.575000000000028
10
-46.506249999999994
20
-21.575000000000017
10
-29.693749999999994
20
-21.575000000000017
10
-29.693749999999994
20
-19.575000000000028
10
-22.693749999999994
20
-19.575000000000028
10
-22.693749999999994
20
-21.575000000000017
10
-21.574999999999985
20
-21.575000000000017
0
LWPOLYLINE
5
107
100
AcDbEntity
8
0
100
AcDbPolyline
90
4
70
1
43
0.0
10
-1.2625000000000126
20
35.574999999999974
10
-1.2625000000000148
20
19.574999999999978
10
-8.2625000000000153
20
19.574999999999978
10
-8.2625000000000153
20
35.574999999999974
0
LWPOLYLINE
5
108
100
AcDbEntity
8
0
100
AcDbPolyline
90
4
70
1
43
0.0
10
14.143749999999995
20
21.574999999999982
10
0.14374999999999138
20
21.574999999999982
10
0.14374999999999055
20
35.574999999999982
10
14.143749999999995
20
35.574999999999982
0
LWPOLYLINE
5
109
100
AcDbEntity
8
0
100
AcDbPolyline
90
4
70
1
43
0.0
10
22.549999999999986
20
35.574999999999974
10
22.549999999999986
20
19.574999999999978
10
15.549999999999986
20
19.574999999999978
10
15.549999999999986
20
35.574999999999974
0
LWPOLYLINE
5
110
100
AcDbEntity
8
0
100
AcDbPolyline
90
4
70
1
43
0.0
10
23.668750000000038
20
16.524999999999991
10
23.668750000000038
20
2.5249999999999861
10
4.906250000000032
20
2.5249999999999906
10
4.9062500000000329
20
16.524999999999995
0
LWPOLYLINE
5
111
100
AcDbEntity
8
0
100
AcDbPolyline
90
4
70
1
43
0.0
10
-9.6687499999999957
20
-7.0000000000000195
10
-23.668749999999999
20
-7.0000000000000195
10
-23.668749999999999
20
6.999999999999984
10
-9.6687499999999957
20
6.999999999999984
0
LWPOLYLINE
5
112
100
AcDbEntity
8
0
100
AcDbPolyline
90
4
70
1
43
0.0
10
-35.862500000000011
20
-16.52500000000002
10
-49.862500000000018
20
-16.52500000000002
10
-49.862500000000018
20
-2.5250000000000217
10
-35.862500000000011
20
-2.5250000000000217
0
LWPOLYLINE
5
113
100
AcDbEntity
8
0
100
AcDbPolyline
90
4
70
1
43
0.0
10
-16.524999999999984
20
-35.575000000000024
10
-16.524999999999984
20
-21.575000000000021
10
-2.5249999999999817
20
-21.575000000000021
10
-2.5249999999999817
20
-35.575000000000024
0
LWPOLYLINE
5
114
100
AcDbEntity
8
0
100
AcDbPolyline
90
14
70
1
43
0.0
10
-56.149999985098816
20
-35.099999985098854
42
0.41421356237309503
10
-54.149999985098816
20
-37.099999985098854
10
-3.0000000149011452
20
-37.099999985098862
42
0.41421356237309515
10
-1.000000014901143
20
-35.099999985098862
10
-1.0000000149011445
20
-3.7416573608876824
42
0.13132595842067848
10
-1.7333333373069597
20
-0.99777529623672612
42
-0.76630751994671542
10
0.997775296236732
20
1.7333333373069626
42
0.1313259584206786
10
3.7416573608876891
20
1.0000000149011461
10
25.574999985098881
20
1.000000014901139
42
0.41421356237309592
10
27.574999985098884
20
3.0000000149011412
10
27.574999985098874
20
35.099999985098826
42
0.41421356237309503
10
25.57499998509887
20
37.099999985098826
10
-54.149999985098844
20
37.099999985098826
42
0.41421356237309503
10
-56.149999985098859
20
35.099999985098819
0
ENDSEC
0
SECTION
2
OBJECTS
0
DICTIONARY
5
C
100
AcDbDictionary
3
ACAD_GROUP
350
D
3
ACAD_MLINESTYLE
350
17
0
DICTIONARY
5
D
100
AcDbDictionary
0
DICTIONARY
5
1A
330
C
100
AcDbDictionary
0
DICTIONARY
5
17
100
AcDbDictionary
0
ENDSEC
0
EOF
